<?xml version="1.0" encoding="utf-8"?>
<!-- Generator: Adobe Illustrator 22.0.1, SVG Export Plug-In . SVG Version: 6.00 Build 0)  -->
<svg version="1.1" id="Layer_1" xmlns="http://www.w3.org/2000/svg" xmlns:xlink="http://www.w3.org/1999/xlink" x="0px" y="0px"
	 viewBox="0 0 700 700" style="enable-background:new 0 0 700 700;" xml:space="preserve">
<g>
	<rect y="224" width="28" height="28"/>
	<path d="M56,196h28h28h28h28h28v-28V0h-28h-28h-28H84H56H28H0v168v28h28H56z M28,28h28h28h28h28h28v140h-28h-28H84H56H28V28z"/>
	<rect x="28" y="252" width="28" height="28"/>
	<rect x="56" y="224" width="28" height="28"/>
	<polygon points="112,140 140,140 140,56 112,56 84,56 56,56 56,140 84,140 	"/>
	<polygon points="84,559.9 56,559.9 56,643.9 84,643.9 112,643.9 140,643.9 140,559.9 112,559.9 	"/>
	<path d="M140,503.9h-28H84H56H28H0v56v84v56h28h28h28h28h28h28h28v-56v-84v-56h-28H140z M168,643.9v28h-28h-28H84H56H28v-28v-84
		v-28h28h28h28h28h28v28V643.9z"/>
	<rect x="168" y="391.9" width="28" height="28"/>
	<rect x="168" y="447.9" width="28" height="28"/>
	<rect x="224" width="28" height="28"/>
	<polygon points="252,56 280,56 280,84 308,84 308,56 280,56 280,28 252,28 252,56 224,56 224,84 252,84 	"/>
	<polygon points="252,140 224,140 224,168 224,196 252,196 252,168 	"/>
	<polygon points="224,615.9 224,643.9 252,643.9 280,643.9 280,615.9 252,615.9 	"/>
	<polygon points="224,671.9 224,699.9 252,699.9 280,699.9 280,671.9 252,671.9 	"/>
	<rect x="252" y="84" width="28" height="28"/>
	<polygon points="252,252 280,252 308,252 308,224 280,224 280,196 252,196 	"/>
	<rect x="280" width="28" height="28"/>
	<polygon points="280,168 280,196 308,196 308,168 308,140 280,140 	"/>
	<rect x="280" y="587.9" width="28" height="28"/>
	<rect x="308" y="252" width="28" height="28"/>
	<polygon points="336,531.9 336,503.9 308,503.9 308,475.9 308,447.9 280,447.9 280,475.9 252,475.9 224,475.9 224,531.9 252,531.9 
		280,531.9 280,559.9 308,559.9 308,531.9 	"/>
	<polygon points="447.9,112 419.9,112 419.9,84 447.9,84 475.9,84 475.9,0 447.9,0 419.9,0 419.9,28 447.9,28 447.9,56 419.9,56 
		419.9,28 391.9,28 363.9,28 336,28 336,84 363.9,84 363.9,56 391.9,56 391.9,112 363.9,112 336,112 308,112 308,140 336,140 
		336,168 336,196 363.9,196 363.9,168 363.9,140 391.9,140 419.9,140 419.9,168 447.9,168 	"/>
	<rect x="419.9" y="280" width="28" height="28"/>
	<polygon points="447.9,168 447.9,196 419.9,196 419.9,168 391.9,168 391.9,224 363.9,224 363.9,280 391.9,280 419.9,280 419.9,224 
		447.9,224 447.9,252 475.9,252 475.9,168 	"/>
	<polygon points="475.9,643.9 447.9,643.9 447.9,671.9 419.9,671.9 419.9,643.9 419.9,615.9 391.9,615.9 363.9,615.9 363.9,587.9 
		391.9,587.9 391.9,559.9 391.9,531.9 363.9,531.9 363.9,559.9 336,559.9 308,559.9 308,587.9 336,587.9 336,643.9 308,643.9 
		308,671.9 336,671.9 363.9,671.9 363.9,643.9 391.9,643.9 391.9,671.9 363.9,671.9 363.9,699.9 391.9,699.9 419.9,699.9 
		447.9,699.9 475.9,699.9 475.9,671.9 503.9,671.9 503.9,643.9 	"/>
	<rect x="503.9" y="503.9" width="28" height="28"/>
	<rect x="503.9" y="671.9" width="28" height="28"/>
	<polygon points="587.9,56 559.9,56 559.9,140 587.9,140 615.9,140 643.9,140 643.9,56 615.9,56 	"/>
	<polygon points="615.9,252 587.9,252 587.9,308 587.9,336 615.9,336 615.9,308 643.9,308 643.9,280 615.9,280 	"/>
	<path d="M587.9,391.9v28h-28h-28v28h-28v-28h28v-28h28v-84h-28v-28h28v-56h-28v28h-28h-28v56h28v84h-28v56h-28h-28v-28h28v-28h28
		v-56h-28v28h-28v28h-28h-28v-28h28v-56h-28h-28v28h-28v-28h-28v-28h-28h-28v-56h-28h-28v28h28v28h-28v28h28v28h-28v-28h-28v-56h-28
		v56H84H56H28H0v56h28h28v-28h28h28v84H84v-56H56v28H28H0v28h28h28v28H28H0v28h28h28h28v-28h28v28h28v-28h28v-28h-28v-28h28v-28h28
		v28h28v56h28h28v-56h28v-28h28v56h-28v28h28h28v-28h28v28h-28v28v28h28h28v-28h28v56h-28v28v28h28v28h28h28v-28h28h28v28h-28v28v28
		h28h28v-28h28v-28h-28v-56v-84v-28h28v-28h28v-28h-28H587.9z M280,363.9h-28v-28h-28v-28h28v28h28V363.9z M559.9,559.9h-28h-28h-28
		v-84h28h28h28V559.9z"/>
	<rect x="587.9" y="671.9" width="28" height="28"/>
	<rect x="615.9" y="224" width="28" height="28"/>
	<rect x="615.9" y="587.9" width="28" height="28"/>
	<rect x="643.9" y="447.9" width="28" height="28"/>
	<polygon points="671.9,643.9 699.9,643.9 699.9,615.9 671.9,615.9 643.9,615.9 643.9,643.9 	"/>
	<path d="M671.9,0h-28h-28h-28h-28h-28h-28v168v28h28h28h28h28h28h28h28v-28V0H671.9z M643.9,168h-28h-28h-28h-28V28h28h28h28h28h28
		v140H643.9z"/>
	<polygon points="671.9,252 643.9,252 643.9,280 671.9,280 671.9,308 699.9,308 699.9,224 671.9,224 	"/>
	<polygon points="671.9,363.9 643.9,363.9 643.9,391.9 671.9,391.9 671.9,419.9 699.9,419.9 699.9,336 671.9,336 	"/>
	<polygon points="671.9,531.9 643.9,531.9 643.9,559.9 671.9,559.9 699.9,559.9 699.9,475.9 671.9,475.9 	"/>
	<rect x="671.9" y="671.9" width="28" height="28"/>
</g>
</svg>
